<svg
  xmlns="http://www.w3.org/2000/svg"
  viewBox="0 0 269 50"
  style={{ fill: 'black' }}
>
<path d="M-0.1,23.2h22.4l22.9,23.3h-23v23.3L-0.1,46.5C-0.1,46.5-0.1,23.2-0.1,23.2z M-0.1,0.5h45.4v22.7h-23L-0.1,0.5z" class="st0"></path>
<path d="M86.6,53.2V9.7h26.8v8.7H96.7v11.4h16.7v8.6H96.7v14.7H86.6z" class="st0"></path>
<path d="M119.3,53.2V23.1h10.1v6.8c0.2-2.1,1.2-4,2.6-5.4c1.5-1.3,3.5-2,5.4-2c1.3,0,2,0.7,2.6,0.7v8.8h-2.6
	c-2.3-0.3-4.6,0.8-6.1,2.6c-1.3,1.3-2,4-2,7.3v11.4C129.4,53.2,119.3,53.2,119.3,53.2z" class="st0"></path>
<path d="M158.8,46.6c2.1,0.3,4.3-0.8,5.3-2.6c1.3-1.5,2-3.3,2-5.3c0-2.2-0.7-4.3-2-6c-1.3-1.5-3.3-2.1-5.3-2
	c-2,0-4,0.7-5.4,2c-1.3,1.7-2.1,3.8-2,6c0,2,0.7,4,2,5.3C154.7,45.6,156.6,46.6,158.8,46.6z M156.1,54.5c-4.1,0-7.9-1.7-10.7-4.6
	c-2.3-3.3-3.5-7.3-3.3-11.4c0-2.6,0.5-5.5,1.3-7.9c1.2-2.5,3.1-4.5,5.3-6.1c2.1-1.3,4.8-2,7.4-2c2,0.2,4.1,0.5,5.9,1.3
	c1.6,0.8,2.8,2.3,3.3,4V23h10.1V53h-10.1v-4c-0.8,1.5-2,2.8-3.3,4C160.3,54,158.3,54.3,156.1,54.5L156.1,54.5z" class="st0"></path>
<path d="M182.9,53.2V23.1h9.4v4.8c0.7-2,2-2.6,3.3-4c1.6-0.8,3.5-1.2,5.4-1.3c4.6,0,8.1,2,9.4,5.5c1.3-1.3,2.6-2.6,4-4
	c2-0.8,4-1.2,6.1-1.3c7.3,0,10.7,4,10.7,12.1v18.7h-9.4v-17c0-1.7-0.5-3.3-1.3-4.6c-1-0.8-2.1-1.3-3.5-1.3c-1.6-0.2-3.1,0.7-4,2
	c-1,1.7-1.5,3.5-1.3,5.3v15.4h-9.4V36.5c0-1.7-0.5-3.3-1.3-4.6c-0.8-0.8-2.1-1.3-3.3-1.3c-1.5,0.2-3,0.8-4,2c-1,1.7-1.5,3.5-1.3,5.3
	v15.4L182.9,53.2L182.9,53.2z" class="st0"></path>
<path d="M245.8,35.2h12.7c0-1.7-0.5-3.3-1.3-4.6c-1.3-1.3-2.6-1.3-4.6-1.3c-1.8,0-3.6,0.5-5.3,1.3
	C246.3,31.9,245.8,33.5,245.8,35.2L245.8,35.2z M267.8,36.5v4.6h-22.1c0,1.8,0.7,3.5,2,4.6c1.3,1,3,1.5,4.6,1.3
	c3.3,0,4.6-0.7,5.9-2.6h9.4c-0.7,3.1-2.6,5.8-5.3,7.3c-3.1,1.7-6.6,2.6-10.1,2.6c-5.3,0-9.4-1.3-12.1-4.6c-3-3-4.8-7.1-4.8-11.4
	s1.6-8.8,4.8-12.1c2.6-2.6,6.6-4,12.1-4c4.1-0.2,8.3,1.3,11.4,4C266.5,29.1,268,32.7,267.8,36.5L267.8,36.5z" class="st0"></path>
<path d="M273.2,53.2V23.1h9.4v6.8c0.7-2,1.8-3.8,3.3-5.4c1.5-1.3,3.3-2,5.3-2c0.7,0,2,0.7,2.6,0.7v8.8h-3.3
	c-2.1-0.2-4.1,1-5.3,2.6c-2,1.3-2.6,4-2.6,7.3v11.4C282.6,53.2,273.2,53.2,273.2,53.2z" class="st0"></path>
</svg>
