<svg xml:space="preserve" style="enable-background:new 0 0 304.5 58.5;" viewBox="0 0 304.5 58.5" y="0px" x="0px" xmlns:xlink="http://www.w3.org/1999/xlink" xmlns="http://www.w3.org/2000/svg" id="Layer_2_00000090981621088263956960000016569342198238495917_" version="1.1">
<style type="text/css">
	.st0{fill: black;}
</style>
<g id="Layer_1-2">
	<path d="M77.5,58.5c0-11.9,0-23.8-0.1-35.7c0-2.3,0-4.6,0-7.1c1.9-0.3,3.6-0.1,5.3-0.2c0.6,1.3,0,2.6,0.4,3.7
		c0.3,0.2,0.5,0.2,0.7,0c1.7-2.1,3.9-3.3,6.4-3.9c3.1-0.7,6.1-0.2,9.1,1c5.4,2.1,8.7,9.9,7.9,15.4c-0.7,4.9-2.7,9.2-7.3,11.9
		c-1.4,0.8-2.8,1.4-4.4,1.4c-1,0-2,0-3,0.1c-3,0.2-5.5-1-7.7-2.9c-0.5-0.4-0.8-1.1-1.8-1.1c-0.2,5.8,0,11.6-0.1,17.4L77.5,58.5
		L77.5,58.5z M101.1,30c0.2-1.8-0.2-3.7-1.2-5.5c-3.2-5.7-11.2-6.3-14.9-0.5c-2.6,4.2-2.4,8.3,0.1,12.4c2.6,4.2,9.2,4.9,12.8,1.5
		C100.1,35.9,101.2,33.3,101.1,30L101.1,30z" class="st0"></path>
	<path d="M0.5,7.5c4.2,0,8.3,0,12.5,0.1c3.2,0.1,6.2,0.9,8.8,2.8c3.1,2.2,4.7,6.6,3.8,10.3c-1.1,4.5-3.8,7.4-8.5,8.4
		c-1.4,0.3-2.8,0.5-4.2,0.5c-2.2,0-4.5,0-6.9,0v15.3c-2,0-3.8,0.1-5.6,0.1L0.5,7.5L0.5,7.5z M6.1,25c2,0,3.8-0.1,5.6,0
		c1.3,0.1,2.6-0.2,3.9-0.5c2.4-0.6,3.8-2.4,3.9-4.8c0-0.8,0-1.5,0-2.2c-0.1-2.1-2.1-4.6-4.2-4.9c-3-0.3-6.1-0.2-9.2-0.1
		C6.1,12.5,6.1,25,6.1,25z" class="st0"></path>
	<path d="M304.5,45c-1.6,0-3.2,0.1-4.7-0.1c-1.8-0.2-3.6-0.3-5.2-1.4c-2-1.3-3-3-3-5.4c0-3.9,0-7.8,0-11.7
		c0-1.2,0-2.5,0-3.7c0-1.7-0.8-2.6-2.5-2.7c-0.2,0-0.5-0.1-0.9-0.2c-0.2-1.4-0.1-2.7,0-4c0.6-0.5,1.2-0.3,1.8-0.4
		c1.5-0.1,1.6-0.3,1.7-1.8c0-1.4,0-2.8,0-4.2c0-0.9,0.5-1.4,1.4-1.4c1.3,0,2.6,0,4.2,0c0,1.9,0,3.6,0.1,5.3c0,2,0.1,2.1,2.2,2.1
		c1.8,0,3.5,0,5.2,0V20c-1.7,0-3.3,0-5,0c-2,0-2.4,0.4-2.4,2.5c0,4.3,0,8.6,0,12.9c0,0.8,0.2,1.7,0.4,2.4c0.5,1.3,1.3,2.1,2.8,2.1
		c1.4,0,2.8,0,4.2,0L304.5,45L304.5,45z" class="st0"></path>
	<path d="M226.9,25.7c4.3,1.7,6.3,4.8,6.9,8.9c0.2,1.3-0.4,2.5-0.9,3.6c-1.5,3.6-4.2,5.6-8,6.3
		c-5.8,1-11.6,0.3-17.4,0.5c-0.2,0-0.5-0.1-0.6-0.2c-0.5-0.5-0.4-1-0.4-1.5c-0.3-10.5-0.1-33.2,0.3-35.4c0.4-0.4,0.9-0.4,1.4-0.4
		c4.4,0,8.8-0.2,13.2,0.1c3.1,0.2,6.2,0.9,8.6,3.2c1.1,1,1.8,2.2,2.1,3.6c0.6,2.6,0.6,5.1-0.7,7.5c-0.8,1.5-2.3,2.1-3.5,3.1
		C227.8,25.2,227.5,25.3,226.9,25.7L226.9,25.7z M212.7,39.5c0.4,0.3,0.5,0.4,0.7,0.4c3.1,0,6.1,0.2,9.2,0c2.6-0.1,5.1-2,5.2-5.6
		c0.1-2.2-1.7-5.1-3.6-5.7c-1.2-0.3-2.4-0.7-3.6-0.7c-2.1,0.1-4.1,0-6.2,0c-0.6,0-1.2-0.1-1.6,0.6L212.7,39.5L212.7,39.5z M212.6,18
		c0,1.3,0,2.7,0,4c0,1.2,0.3,1.5,1.5,1.5c1.8,0,3.7,0,5.5,0c1.4,0.1,2.6-0.3,3.9-0.6c1.9-0.5,3.7-3.3,3.5-5.2
		c-0.3-2.9-2.5-5-5.4-5.2c-2.5-0.1-5-0.1-7.5-0.1c-1.1,0-1.4,0.3-1.5,1.5C212.5,15.3,212.6,16.7,212.6,18L212.6,18z" class="st0"></path>
	<path d="M185.9,36.4c1.9,0,3.6,0,5.3,0c0.2,0,0.4,0.1,0.7,0.2c-0.1,2.3-1.6,3.7-3,5c-2.2,2-4.7,3.6-8,3.5
		c-2.4-0.1-4.8,0.3-7.1-0.6c-3.5-1.4-6.3-3.5-7.8-7.2c-2.3-5.4-2.1-10.6,0.6-15.7c1.7-3.1,4.4-5.1,7.8-6c4.6-1.2,9-0.7,13.1,1.9
		c1.6,1.1,3,2.4,3.8,4.2c1.6,3.2,2.1,6.6,1.7,10c-0.6,0.6-1.3,0.4-2,0.4c-5.9,0-11.8,0-17.7,0c-0.6,0-1.2,0-1.7,0
		c-0.7,0.1-1.1,0.5-0.9,1.2c0.5,2.8,2.8,6.3,6.2,6.7c1.3,0.2,2.5,0.4,3.9,0.1C182.9,39.6,184.6,38.6,185.9,36.4L185.9,36.4z
		 M186.9,27.3c-0.3-4.2-3.1-7.1-6.9-7.3c-5.5-0.3-8.3,1.9-9.3,7C172.2,27.6,182.8,27.8,186.9,27.3L186.9,27.3z" class="st0"></path>
	<path d="M123.3,45c-4.7,0.5-8.3-1.3-11.3-4.4c-1.9-2-3-4.6-3.4-7.3c-0.4-3.4-0.3-6.8,1.1-10c1.7-3.9,4.8-6.4,8.8-7.6
		c5.7-1.8,12.6-0.4,16.6,4.8c1.7,2.2,2.7,4.7,3,7.5c0.4,3.8-0.3,7.4-2.3,10.7c-0.9,1.5-2.1,2.8-3.6,3.8
		C129.4,44.3,126.4,45.6,123.3,45L123.3,45z M132,30.1c0-0.3,0-0.7,0-1c-0.1-4.4-2.7-7.6-6.9-8.9c-3.6-1-8.6,1.5-9.7,4.5
		c-1.1,2.9-1.4,5.7-0.8,8.7c0.2,1.1,0.7,2.2,1.4,3.2c2.8,4.1,9.3,4.7,12.9,1.3C131.1,35.8,132.2,33.2,132,30.1L132,30.1z" class="st0"></path>
	<path d="M28.5,15.6h5.2c0.6,0.6,0.4,1.3,0.4,1.9c0,4.9,0,9.8,0,14.7c0,1.8,0.4,3.6,1.5,5.1c2.2,2.9,5.2,3,8.3,2.4
		c3.2-0.6,4.6-3.1,5-5.8c0.1-0.9,0.1-1.8,0.1-2.7c0-4.3,0-8.7,0-13c0-0.8,0-1.6,0-2.5c1-0.4,2-0.2,3-0.3c0.9,0,1.8,0,2.8,0v29.2
		c-1.8,0.5-3.7,0.1-5.4,0.2c-0.8-1,0-2.1-0.8-3c-1,0.2-1.5,1-2.2,1.5c-1.4,0.9-2.9,1.5-4.6,1.5c-1.1,0-2.2,0-3.2,0
		c-4.9,0.1-10.1-4.9-10.1-10C28.5,28.6,28.5,22.2,28.5,15.6L28.5,15.6z" class="st0"></path>
	<path d="M257.9,15.6h5.3c0.4,2.1,0.5,22.6,0.2,29.1c-1.7,0.5-3.5,0.2-5.2,0.2c-0.6-1,0-2-0.6-2.8
		c-0.9-0.1-1.4,0.5-1.9,1c-1.7,1.4-3.6,2-5.7,2c-2,0-4,0.2-5.9-0.6c-4.1-1.5-6.9-5.5-7.1-9.4c-0.2-6.4-0.1-12.8-0.1-19.4
		c1.8-0.3,3.5-0.1,5.1-0.1c0.6,0.6,0.4,1.3,0.4,1.9c0,4,0,8,0,12c0,1.7,0.1,3.3,0.4,5c0.6,2.5,1.9,4.5,4.4,5.2
		c3.8,1.1,7.6,0.3,9.2-2.9c0.8-1.6,1.4-3.3,1.4-5.2c0-4.4,0-8.8,0-13.2C257.9,17.4,257.9,16.6,257.9,15.6L257.9,15.6z" class="st0"></path>
	<path d="M139.6,36.1h5.8c0.2,0.2,0.4,0.4,0.5,0.6c0.6,1.6,1.5,2.7,3.2,3.2c2.2,0.7,4.2,0.5,6.3-0.4
		c1.3-0.6,1.9-1.7,1.7-3c-0.1-1.2-0.6-2.1-2-2.6c-2.6-0.9-5.1-1.9-7.8-2.5c-2.3-0.5-4.1-1.9-5.7-3.3c-1.9-1.7-2.1-5.6-0.7-8.2
		c1.6-2.9,4.3-4.3,7.2-4.8c3.2-0.6,6.4-0.5,9.4,1.2c2.9,1.6,4.5,4,5,7.4c-1.9,0.5-3.7,0.1-5.4,0.2c-0.7-0.4-0.8-1.1-1.1-1.7
		c-0.9-1.5-2.2-2.5-4.1-2.4c-1.1,0.1-2.3-0.2-3.4,0.2c-2.7,1-3.2,3.5-1.1,5.4c1.6,1.4,3.7,1.8,5.7,2.3c2.2,0.6,4.2,1.2,6.2,2.4
		c4.7,2.9,4.9,8.4,1.2,12c-1.8,1.7-3.9,2.7-6.5,2.7c-1.4,0-2.8,0-4.2,0c-3.9-0.1-6.7-2-8.8-5.1C140,38.8,139.9,37.5,139.6,36.1
		L139.6,36.1z" class="st0"></path>
	<path d="M285.3,44.8h-5.7V5.7c1.8-0.6,3.7-0.1,5.5-0.3C285.5,7.4,285.6,40.7,285.3,44.8L285.3,44.8z" class="st0"></path>
	<path d="M65.4,45c-0.6,0-1.1,0-1.5,0c-1.2,0-2.3,0-3.5,0c-0.4-1.9-0.6-25.4-0.2-29.3c0.8-0.3,1.7-0.1,2.6-0.1
		c0.8,0,1.7,0,2.3,0c1.4,0.9,0.4,2.4,1,3.3c3.6-2.6,6.4-3.8,8.3-3.6v5.6c-0.7,0.4-1.4,0.3-2,0.3c-3-0.2-6.4,2.5-6.4,6.2
		c0,4.5-0.1,9-0.1,13.5C65.9,42.1,65.9,43.4,65.4,45L65.4,45z" class="st0"></path>
	<path d="M268.7,15.6h5.7v29.3h-5.5C268.5,43.1,268.3,20,268.7,15.6z" class="st0"></path>
	<path d="M268,7.5c0-2.3,1.6-4,3.9-3.9c2,0.1,3.6,1.8,3.6,4c0,1.9-1.9,3.9-3.9,3.8C269.5,11.2,267.6,9.7,268,7.5z" class="st0"></path>
</g>
</svg>
