<svg xmlns="http://www.w3.org/2000/svg" fill="none" viewBox="0 0 296 50" height="50" width="296">
<path fill="white" d="M79.6356 0.243652L54.518 49.3178H30.9256L41.4373 28.9794H40.9657C32.2937 40.2304 19.3548 47.637 0.918945 49.3178V29.2609C0.918945 29.2609 12.7128 28.5647 19.6461 21.2794H0.918945V0.24404H21.9662V17.5453L22.4386 17.5434L31.0393 0.24404H46.9569V17.4356L47.4293 17.4349L56.3525 0.243652H79.6356Z" clip-rule="evenodd" fill-rule="evenodd"></path>
<path fill="white" d="M216.604 43.902H223.382V5.01562H216.604V43.902Z"></path>
<path fill="white" d="M179.234 43.5025C180.708 44.1147 182.206 44.4206 183.729 44.4206C186.245 44.4206 188.496 43.8086 190.482 42.5844C192.469 41.3601 194.008 39.6725 195.101 37.522C196.193 35.3546 196.739 32.898 196.739 30.1516C196.739 27.4053 196.177 24.9486 195.051 22.7813C193.925 20.6141 192.361 18.9349 190.358 17.7438C188.355 16.5361 186.079 15.9405 183.53 15.957C181.908 15.957 180.352 16.2713 178.862 16.9C177.372 17.5287 176.131 18.422 175.137 19.5801C175.061 19.6683 174.986 19.7573 174.914 19.8473V5.03809H168.111V43.8996H174.864L174.851 40.2692C175.026 40.4832 175.212 40.6923 175.411 40.8967C176.487 42.0054 177.761 42.8739 179.234 43.5025ZM186.187 37.2241C185.078 37.9023 183.811 38.2417 182.388 38.2417C180.981 38.2417 179.69 37.8941 178.514 37.1993C177.339 36.4878 176.404 35.5201 175.709 34.2959C175.03 33.0717 174.691 31.682 174.691 30.1268C174.674 28.5717 175.005 27.182 175.684 25.9578C176.379 24.717 177.314 23.7574 178.489 23.0791C179.665 22.3843 180.964 22.0451 182.388 22.0617C183.811 22.0451 185.078 22.376 186.187 23.0543C187.312 23.7161 188.173 24.6673 188.769 25.9081C189.381 27.1324 189.688 28.5387 189.688 30.1268C189.688 31.715 189.381 33.1213 188.769 34.3455C188.173 35.5697 187.312 36.5292 186.187 37.2241Z" clip-rule="evenodd" fill-rule="evenodd"></path>
<path fill="white" d="M89.4568 7.37256H97.2036L104.134 32.6665L111.506 7.37256H117.961L125.957 32.1589L132.611 7.37256H139.712L129.234 43.9014H122.555L114.425 19.6871L106.962 43.9014H100.208L89.4568 7.37256Z"></path>
<path fill="white" d="M151.151 44.5464C148.453 44.5628 146.019 43.9672 143.851 42.7596C141.699 41.5354 140.002 39.8396 138.761 37.6724C137.536 35.5051 136.923 33.0318 136.923 30.2524C136.923 27.5559 137.553 25.1156 138.81 22.9318C140.068 20.748 141.774 19.044 143.925 17.8198C146.077 16.5955 148.477 15.9834 151.126 15.9834C154.106 15.9834 156.713 16.6452 158.947 17.9687C161.199 19.2922 162.879 21.1699 163.988 23.6018C165.113 26.0172 165.519 28.7883 165.205 31.915H143.936C143.995 33.1607 144.306 34.2942 144.869 35.3148C145.498 36.4398 146.375 37.3167 147.501 37.9453C148.626 38.5739 149.885 38.8882 151.275 38.8882C152.334 38.8719 153.319 38.6898 154.23 38.3425C155.14 37.9786 155.91 37.4904 156.539 36.8784C157.184 36.2661 157.64 35.5713 157.904 34.7939H165.006C164.576 36.6963 163.715 38.3921 162.424 39.881C161.132 41.3533 159.51 42.5031 157.557 43.3304C155.604 44.1574 153.468 44.5628 151.151 44.5464ZM144.894 25.0908C144.497 25.7822 144.222 26.5266 144.069 27.3242H158.168C158.065 26.3166 157.754 25.3984 157.234 24.5697C156.638 23.5936 155.827 22.8408 154.801 22.3114C153.775 21.7655 152.616 21.4925 151.325 21.4925C149.951 21.4925 148.701 21.8068 147.576 22.4355C146.45 23.0642 145.556 23.9493 144.894 25.0908Z" clip-rule="evenodd" fill-rule="evenodd"></path>
<path fill="white" d="M201.729 16.5537C201.729 14.3368 202.234 12.3682 203.244 10.6476C204.254 8.91049 205.669 7.56216 207.49 6.60263C209.327 5.62653 211.471 5.12196 213.921 5.08887V11.1191C212.779 11.1356 211.802 11.3755 210.991 11.8387C210.197 12.2854 209.584 12.9389 209.154 13.7992C208.757 14.5912 208.543 15.5094 208.512 16.5537H213.772V22.2862H208.508V43.9008H201.729V22.2862H197.359V16.5537H201.729Z"></path>
<path fill="white" d="M240.613 44.4972C237.848 44.4972 235.374 43.8931 233.188 42.6856C231.02 41.4613 229.315 39.7737 228.074 37.6232C226.849 35.4558 226.236 32.9992 226.236 30.2528C226.236 27.4901 226.849 25.025 228.074 22.8578C229.315 20.674 231.02 18.9782 233.188 17.7705C235.374 16.5628 237.848 15.959 240.613 15.959C243.394 15.959 245.877 16.5628 248.062 17.7705C250.263 18.9782 251.976 20.6657 253.201 22.8329C254.426 25.0002 255.047 27.4735 255.064 30.2528C255.047 32.9992 254.426 35.4558 253.201 37.6232C251.993 39.7737 250.288 41.4613 248.086 42.6856C245.885 43.8931 243.394 44.4972 240.613 44.4972ZM240.613 38.2685C242.069 38.2685 243.361 37.9375 244.486 37.2757C245.612 36.5975 246.481 35.6543 247.093 34.4467C247.706 33.2225 248.012 31.8246 248.012 30.2528C248.012 28.6647 247.706 27.2584 247.093 26.0342C246.481 24.8099 245.612 23.867 244.486 23.2052C243.361 22.5269 242.069 22.1877 240.613 22.1877C239.173 22.1877 237.89 22.5269 236.764 23.2052C235.655 23.867 234.794 24.8099 234.182 26.0342C233.569 27.2584 233.271 28.6647 233.288 30.2528C233.288 31.8246 233.594 33.2225 234.207 34.4467C234.836 35.6543 235.696 36.5975 236.789 37.2757C237.898 37.9375 239.173 38.2685 240.613 38.2685Z" clip-rule="evenodd" fill-rule="evenodd"></path>
<path fill="white" d="M262.39 16.5542H254.842L263.01 43.9012H269.615L274.988 26.4347L280.789 43.9012H287.294L295.488 16.5542H288.661L284.013 33.5759L278.877 16.5542H272.272L267.16 33.951L262.39 16.5542Z"></path>
</svg>
