<svg xmlns="http://www.w3.org/2000/svg" fill="none" viewBox="0 0 205 67" height="67" width="205">
<g clip-path="url(#clip0_5641_1356)">
<path fill="black" d="M198.69 29.299H199.679C199.893 29.299 200.092 29.2943 200.278 29.285C200.473 29.2665 200.645 29.2247 200.793 29.1597C200.942 29.0947 201.058 28.9972 201.142 28.8672C201.235 28.7279 201.281 28.5375 201.281 28.2961C201.281 28.0918 201.239 27.9293 201.156 27.8086C201.081 27.6879 200.979 27.595 200.849 27.53C200.728 27.465 200.585 27.4232 200.417 27.4046C200.26 27.3768 200.102 27.3628 199.944 27.3628H198.69V29.299ZM197.743 26.5967H200.097C200.821 26.5967 201.355 26.7407 201.699 27.0285C202.052 27.3164 202.228 27.7529 202.228 28.3379C202.228 28.8857 202.075 29.2897 201.768 29.5497C201.462 29.8004 201.081 29.949 200.626 29.9954L202.367 32.6837H201.351L199.693 30.0651H198.69V32.6837H197.743V26.5967ZM195.473 29.6193C195.473 30.2601 195.579 30.8544 195.793 31.4023C196.016 31.9408 196.318 32.4098 196.698 32.8091C197.088 33.2084 197.543 33.5241 198.063 33.7563C198.593 33.9791 199.164 34.0906 199.777 34.0906C200.38 34.0906 200.942 33.9791 201.462 33.7563C201.982 33.5241 202.432 33.2084 202.813 32.8091C203.203 32.4098 203.505 31.9408 203.719 31.4023C203.941 30.8544 204.053 30.2601 204.053 29.6193C204.053 28.9972 203.941 28.4168 203.719 27.8782C203.505 27.3396 203.203 26.8753 202.813 26.4853C202.432 26.086 201.982 25.7749 201.462 25.5521C200.942 25.3199 200.38 25.2038 199.777 25.2038C199.164 25.2038 198.593 25.3199 198.063 25.5521C197.543 25.7749 197.088 26.086 196.698 26.4853C196.318 26.8753 196.016 27.3396 195.793 27.8782C195.579 28.4168 195.473 28.9972 195.473 29.6193ZM194.525 29.6193C194.525 28.8857 194.665 28.2032 194.943 27.5718C195.222 26.9403 195.598 26.3925 196.072 25.9282C196.554 25.4638 197.112 25.1017 197.743 24.8417C198.384 24.5724 199.062 24.4377 199.777 24.4377C200.492 24.4377 201.165 24.5724 201.796 24.8417C202.428 25.1017 202.98 25.4638 203.454 25.9282C203.927 26.3925 204.304 26.9403 204.582 27.5718C204.861 28.2032 205 28.8857 205 29.6193C205 30.3715 204.861 31.068 204.582 31.7087C204.304 32.3401 203.927 32.8927 203.454 33.3663C202.98 33.8306 202.428 34.1927 201.796 34.4527C201.165 34.7127 200.492 34.8427 199.777 34.8427C199.062 34.8427 198.384 34.7127 197.743 34.4527C197.112 34.1927 196.554 33.8306 196.072 33.3663C195.598 32.8927 195.222 32.3401 194.943 31.7087C194.665 31.068 194.525 30.3715 194.525 29.6193Z"></path>
<path fill="black" d="M187.129 27.4727H181.604V25.6155H194.859V27.4727H189.334V42.191H187.129V27.4727Z"></path>
<path fill="black" d="M173.295 25.6155H175.5V40.3338H184.276V42.191H173.295V25.6155Z"></path>
<path fill="black" d="M168.078 25.6155H170.284V42.191H168.078V25.6155Z"></path>
<path fill="black" d="M165.159 36.2015C165.159 38.3218 164.595 39.9159 163.465 40.9838C162.335 42.0363 160.725 42.5625 158.636 42.5625C156.5 42.5625 154.829 42.0595 153.622 41.0535C152.43 40.032 151.834 38.4147 151.834 36.2015V25.6155H154.039V36.2015C154.039 37.6873 154.434 38.8171 155.223 39.5909C156.013 40.3493 157.15 40.7285 158.636 40.7285C160.044 40.7285 161.112 40.3493 161.84 39.5909C162.583 38.8171 162.954 37.6873 162.954 36.2015V25.6155H165.159V36.2015Z"></path>
<path fill="black" d="M138.936 32.7425H143.347C144.6 32.7425 145.498 32.5258 146.04 32.0925C146.597 31.6437 146.875 30.9782 146.875 30.096C146.875 29.5079 146.783 29.0436 146.597 28.7031C146.411 28.3626 146.156 28.0995 145.831 27.9138C145.506 27.728 145.127 27.612 144.693 27.5655C144.275 27.5036 143.827 27.4727 143.347 27.4727H138.936V32.7425ZM136.73 25.6155H142.743C143.099 25.6155 143.478 25.6232 143.881 25.6387C144.299 25.6387 144.709 25.6619 145.111 25.7083C145.513 25.7393 145.885 25.7935 146.225 25.8708C146.581 25.9482 146.883 26.0643 147.131 26.2191C147.672 26.5441 148.129 26.9929 148.5 27.5655C148.887 28.1382 149.081 28.8424 149.081 29.6781C149.081 30.5603 148.864 31.3264 148.431 31.9764C148.013 32.6109 147.409 33.083 146.62 33.3925V33.439C147.642 33.6556 148.423 34.1199 148.965 34.8319C149.506 35.5438 149.777 36.4105 149.777 37.4319C149.777 38.0355 149.669 38.6236 149.452 39.1963C149.236 39.7689 148.911 40.2797 148.477 40.7285C148.059 41.1618 147.533 41.5178 146.899 41.7964C146.28 42.0595 145.56 42.191 144.74 42.191H136.73V25.6155ZM138.936 40.3338H144.461C145.436 40.3338 146.194 40.0707 146.736 39.5445C147.293 39.0183 147.572 38.2909 147.572 37.3623C147.572 36.8206 147.471 36.3718 147.27 36.0158C147.069 35.6599 146.798 35.3813 146.458 35.1801C146.133 34.9634 145.753 34.8164 145.32 34.739C144.887 34.6461 144.438 34.5997 143.974 34.5997H138.936V40.3338Z"></path>
<path fill="black" d="M118.815 33.555H123.133C124.386 33.5705 125.3 33.3151 125.872 32.7889C126.46 32.2627 126.754 31.5044 126.754 30.5139C126.754 29.5233 126.46 28.7727 125.872 28.262C125.3 27.7358 124.386 27.4727 123.133 27.4727H118.815V33.555ZM116.609 25.6155H123.876C125.547 25.6155 126.809 26.0488 127.66 26.9155C128.526 27.7667 128.96 28.9662 128.96 30.5139C128.96 32.0615 128.526 33.2687 127.66 34.1354C126.809 35.0021 125.547 35.4277 123.876 35.4122H118.815V42.191H116.609V25.6155Z"></path>
<path fill="black" d="M100.944 33.9031C100.944 34.7389 101.052 35.5669 101.269 36.3871C101.485 37.1919 101.826 37.9193 102.29 38.5694C102.754 39.2194 103.35 39.7456 104.078 40.148C104.805 40.5349 105.672 40.7284 106.678 40.7284C107.684 40.7284 108.551 40.5349 109.278 40.148C110.005 39.7456 110.601 39.2194 111.065 38.5694C111.53 37.9193 111.87 37.1919 112.087 36.3871C112.304 35.5669 112.412 34.7389 112.412 33.9031C112.412 33.0674 112.304 32.2471 112.087 31.4423C111.87 30.6221 111.53 29.8869 111.065 29.2369C110.601 28.5869 110.005 28.0684 109.278 27.6815C108.551 27.2791 107.684 27.0779 106.678 27.0779C105.672 27.0779 104.805 27.2791 104.078 27.6815C103.35 28.0684 102.754 28.5869 102.29 29.2369C101.826 29.8869 101.485 30.6221 101.269 31.4423C101.052 32.2471 100.944 33.0674 100.944 33.9031ZM98.7383 33.9031C98.7383 32.7733 98.9008 31.69 99.2258 30.653C99.5663 29.6006 100.069 28.672 100.735 27.8672C101.4 27.0624 102.228 26.4201 103.219 25.9404C104.209 25.4606 105.362 25.2207 106.678 25.2207C107.993 25.2207 109.146 25.4606 110.137 25.9404C111.127 26.4201 111.955 27.0624 112.621 27.8672C113.286 28.672 113.782 29.6006 114.107 30.653C114.447 31.69 114.617 32.7733 114.617 33.9031C114.617 35.0329 114.447 36.124 114.107 37.1765C113.782 38.2134 113.286 39.1343 112.621 39.939C111.955 40.7438 111.127 41.3861 110.137 41.8659C109.146 42.3302 107.993 42.5623 106.678 42.5623C105.362 42.5623 104.209 42.3302 103.219 41.8659C102.228 41.3861 101.4 40.7438 100.735 39.939C100.069 39.1343 99.5663 38.2134 99.2258 37.1765C98.9008 36.124 98.7383 35.0329 98.7383 33.9031Z"></path>
<path fill="black" d="M83.6113 25.6155H85.8168V32.7425H94.5456V25.6155H96.751V42.191H94.5456V34.5997H85.8168V42.191H83.6113V25.6155Z"></path>
<path fill="black" d="M78.8404 30.4673C78.7166 29.2756 78.2833 28.4166 77.5404 27.8904C76.813 27.3487 75.8766 27.0779 74.7313 27.0779C74.267 27.0779 73.8105 27.1243 73.3617 27.2172C72.9128 27.3101 72.5104 27.4648 72.1545 27.6815C71.814 27.8982 71.5354 28.1922 71.3187 28.5637C71.1175 28.9196 71.0169 29.3685 71.0169 29.9101C71.0169 30.4209 71.164 30.8387 71.458 31.1638C71.7676 31.4733 72.17 31.7287 72.6652 31.9299C73.1759 32.131 73.7486 32.3013 74.3831 32.4406C75.0177 32.5644 75.66 32.7037 76.31 32.8585C76.9755 33.0132 77.6255 33.1989 78.26 33.4156C78.8946 33.6168 79.4595 33.8954 79.9547 34.2514C80.4655 34.6073 80.8679 35.0561 81.1619 35.5978C81.4714 36.1395 81.6262 36.8205 81.6262 37.6408C81.6262 38.5229 81.425 39.2813 81.0226 39.9158C80.6357 40.5349 80.1327 41.0456 79.5136 41.448C78.8946 41.8349 78.1981 42.1135 77.4243 42.2838C76.6659 42.4695 75.9076 42.5623 75.1492 42.5623C74.2206 42.5623 73.3384 42.4463 72.5027 42.2141C71.6824 41.982 70.955 41.6337 70.3205 41.1694C69.7014 40.6897 69.2062 40.0861 68.8347 39.3587C68.4788 38.6158 68.3008 37.7414 68.3008 36.7354H70.3901C70.3901 37.4318 70.5217 38.0354 70.7848 38.5461C71.0634 39.0414 71.4193 39.4515 71.8527 39.7765C72.3015 40.1015 72.82 40.3414 73.4081 40.4962C73.9962 40.651 74.5998 40.7284 75.2189 40.7284C75.7141 40.7284 76.2094 40.6819 76.7046 40.5891C77.2154 40.4962 77.6719 40.3414 78.0743 40.1248C78.4767 39.8926 78.8017 39.5831 79.0493 39.1962C79.297 38.8092 79.4208 38.314 79.4208 37.7104C79.4208 37.1378 79.266 36.6735 78.9565 36.3175C78.6624 35.9615 78.26 35.6752 77.7493 35.4585C77.254 35.2264 76.6891 35.0407 76.0546 34.9014C75.4201 34.7621 74.77 34.6228 74.1045 34.4835C73.4545 34.3287 72.8122 34.1585 72.1777 33.9728C71.5431 33.7716 70.9705 33.5162 70.4598 33.2067C69.9645 32.8817 69.5621 32.4715 69.2526 31.9763C68.9585 31.4655 68.8115 30.831 68.8115 30.0726C68.8115 29.2369 68.9818 28.5172 69.3222 27.9136C69.6627 27.2946 70.1116 26.7916 70.6687 26.4047C71.2414 26.0023 71.8836 25.7082 72.5956 25.5225C73.323 25.3213 74.0658 25.2207 74.8242 25.2207C75.6754 25.2207 76.4647 25.3213 77.1921 25.5225C77.9195 25.7237 78.5541 26.041 79.0958 26.4743C79.6529 26.9077 80.0863 27.4571 80.3958 28.1226C80.7208 28.7726 80.8988 29.5542 80.9298 30.4673H78.8404Z"></path>
<path fill="black" d="M54.4648 25.6155H56.6703V33.88L65.0741 25.6155H67.9296L60.9418 32.3014L68.2082 42.191H65.4223L59.4329 33.8104L56.6703 36.3873V42.191H54.4648V25.6155Z"></path>
<path fill="black" d="M39.2695 25.6155H47.0698C48.6484 25.6155 49.8788 26.0024 50.761 26.7762C51.6586 27.5501 52.1075 28.6102 52.1075 29.9567C52.1075 30.9627 51.8753 31.8449 51.411 32.6032C50.9622 33.3616 50.2348 33.88 49.2288 34.1586V34.205C49.7086 34.2979 50.0955 34.4527 50.3895 34.6693C50.6991 34.886 50.939 35.1491 51.1092 35.4587C51.2949 35.7527 51.4265 36.0855 51.5039 36.4569C51.5967 36.8283 51.6664 37.2153 51.7128 37.6177C51.7438 38.0201 51.767 38.4302 51.7824 38.8481C51.7979 39.2659 51.8366 39.6761 51.8985 40.0785C51.9604 40.4808 52.0455 40.8678 52.1539 41.2392C52.2777 41.5952 52.4557 41.9124 52.6878 42.191H50.227C50.0723 42.0208 49.9639 41.7886 49.902 41.4946C49.8556 41.2005 49.8246 40.8755 49.8092 40.5195C49.7937 40.1481 49.7782 39.7534 49.7627 39.3356C49.7473 38.9177 49.7008 38.5076 49.6234 38.1052C49.5615 37.7028 49.4841 37.3236 49.3913 36.9676C49.2984 36.5962 49.1514 36.2789 48.9502 36.0158C48.749 35.7372 48.4859 35.5206 48.1609 35.3658C47.8359 35.1956 47.4025 35.1104 46.8609 35.1104H41.475V42.191H39.2695V25.6155ZM46.0715 33.2532C46.5823 33.2532 47.0698 33.2145 47.5341 33.1372C47.9984 33.0598 48.4008 32.9127 48.7413 32.6961C49.0972 32.4639 49.3758 32.1621 49.577 31.7907C49.7937 31.4038 49.902 30.9085 49.902 30.3049C49.902 29.4692 49.6699 28.7882 49.2056 28.262C48.7413 27.7358 47.9906 27.4727 46.9537 27.4727H41.475V33.2532H46.0715Z"></path>
<path fill="black" d="M23.6039 33.9031C23.6039 34.7389 23.7122 35.5669 23.9289 36.3871C24.1455 37.1919 24.486 37.9193 24.9503 38.5694C25.4146 39.2194 26.0105 39.7456 26.7379 40.148C27.4653 40.5349 28.332 40.7284 29.338 40.7284C30.344 40.7284 31.2107 40.5349 31.9381 40.148C32.6655 39.7456 33.2613 39.2194 33.7256 38.5694C34.1899 37.9193 34.5304 37.1919 34.7471 36.3871C34.9638 35.5669 35.0721 34.7389 35.0721 33.9031C35.0721 33.0674 34.9638 32.2471 34.7471 31.4423C34.5304 30.6221 34.1899 29.8869 33.7256 29.2369C33.2613 28.5869 32.6655 28.0684 31.9381 27.6815C31.2107 27.2791 30.344 27.0779 29.338 27.0779C28.332 27.0779 27.4653 27.2791 26.7379 27.6815C26.0105 28.0684 25.4146 28.5869 24.9503 29.2369C24.486 29.8869 24.1455 30.6221 23.9289 31.4423C23.7122 32.2471 23.6039 33.0674 23.6039 33.9031ZM21.3984 33.9031C21.3984 32.7733 21.5609 31.69 21.886 30.653C22.2264 29.6006 22.7294 28.672 23.3949 27.8672C24.0604 27.0624 24.8884 26.4201 25.8789 25.9404C26.8694 25.4606 28.0225 25.2207 29.338 25.2207C30.6535 25.2207 31.8065 25.4606 32.797 25.9404C33.7875 26.4201 34.6155 27.0624 35.281 27.8672C35.9465 28.672 36.4418 29.6006 36.7668 30.653C37.1073 31.69 37.2775 32.7733 37.2775 33.9031C37.2775 35.0329 37.1073 36.124 36.7668 37.1765C36.4418 38.2134 35.9465 39.1343 35.281 39.939C34.6155 40.7438 33.7875 41.3861 32.797 41.8659C31.8065 42.3302 30.6535 42.5623 29.338 42.5623C28.0225 42.5623 26.8694 42.3302 25.8789 41.8659C24.8884 41.3861 24.0604 40.7438 23.3949 39.939C22.7294 39.1343 22.2264 38.2134 21.886 37.1765C21.5609 36.124 21.3984 35.0329 21.3984 33.9031Z"></path>
<path fill="black" d="M16.5059 42.191H14.2076L10.4236 28.262H10.3771L6.54664 42.191H4.24835L0 25.6155H2.25186L5.50197 39.4052H5.5484L9.2628 25.6155H11.654L15.3219 39.4052H15.3684L18.7345 25.6155H20.94L16.5059 42.191Z"></path>
</g>
<defs>
<clipPath id="clip0_5641_1356">
<rect fill="black" height="67" width="205"></rect>
</clipPath>
</defs>
</svg>
