<svg xmlns="http://www.w3.org/2000/svg" fill="#000" viewBox="0 0 269 50" height="50" width="269">
<path fill="black" d="M38.8233 13.6738H12.7903C11.4056 13.6738 9.60129 14.5673 8.76027 15.6695L1.62342 25.0224C0.782393 26.1245 1.22314 27.018 2.60785 27.018H28.6408C30.0255 27.018 31.8299 26.1245 32.6709 25.0224L39.8077 15.6695C40.6488 14.5673 40.208 13.6738 38.8233 13.6738Z"></path>
<path fill="black" d="M52.4383 0.23291H32.266C30.8813 0.23291 29.077 1.1264 28.236 2.22856L23.6633 8.22106C22.8223 9.32323 23.263 10.2167 24.6477 10.2167H44.8201C46.2048 10.2167 48.0091 9.32323 48.8501 8.22106L53.4228 2.22856C54.2638 1.1264 53.8231 0.23291 52.4383 0.23291Z"></path>
<path fill="black" d="M72.5526 49.9553C70.4646 49.9553 68.6627 49.7189 67.1471 49.2461C65.6653 48.7396 64.4529 48.1318 63.5099 47.4226C62.6005 46.7134 61.9101 46.0042 61.4385 45.295C61.0007 44.5521 60.7649 43.9275 60.7313 43.4208C60.6977 43.0494 60.8155 42.7455 61.0849 42.5091C61.3543 42.2727 61.6237 42.1545 61.8933 42.1545H66.7935C66.8946 42.1545 66.9956 42.1713 67.0967 42.2052C67.1977 42.239 67.2987 42.3234 67.3997 42.4584C67.8376 42.7623 68.2923 43.1169 68.7638 43.5222C69.2353 43.8936 69.7742 44.2144 70.3804 44.4846C71.0203 44.7547 71.8118 44.8899 72.7548 44.8899C73.8662 44.8899 74.8092 44.6703 75.5838 44.2314C76.3584 43.7586 76.7458 43.1001 76.7458 42.2559C76.7458 41.648 76.5604 41.1414 76.19 40.7363C75.8532 40.331 75.1964 39.9596 74.2198 39.6218C73.2432 39.2841 71.795 38.9126 69.8752 38.5075C68.0565 38.1022 66.5073 37.5619 65.2275 36.8866C63.9477 36.2111 62.9877 35.3668 62.3479 34.3539C61.7079 33.3069 61.3881 32.0574 61.3881 30.6054C61.3881 29.2884 61.7921 28.022 62.6005 26.8064C63.4425 25.5907 64.6717 24.5944 66.2883 23.8177C67.905 23.0073 69.9257 22.6021 72.3506 22.6021C74.203 22.6021 75.8196 22.8384 77.2004 23.3112C78.6148 23.7502 79.7936 24.3243 80.7366 25.0335C81.6796 25.7089 82.387 26.4181 82.8584 27.1609C83.3636 27.8701 83.6331 28.4948 83.6668 29.0351C83.7004 29.3729 83.5994 29.6598 83.3636 29.8962C83.1279 30.1326 82.8584 30.2508 82.5554 30.2508H78.0592C77.8908 30.2508 77.7392 30.2339 77.6046 30.2001C77.4698 30.1326 77.352 30.0482 77.251 29.9469C76.8468 29.6768 76.4258 29.3729 75.988 29.0351C75.5838 28.6637 75.0954 28.3429 74.523 28.0727C73.9504 27.8026 73.2094 27.6674 72.3001 27.6674C71.1886 27.6674 70.3298 27.9208 69.7236 28.4273C69.1511 28.9001 68.8648 29.5079 68.8648 30.2508C68.8648 30.7236 69.0164 31.1625 69.3195 31.5678C69.6226 31.9731 70.2456 32.3445 71.1886 32.6823C72.1317 33.0199 73.563 33.3745 75.4828 33.7459C77.773 34.1512 79.5916 34.759 80.9388 35.5695C82.2859 36.3799 83.2458 37.3255 83.8183 38.4062C84.4246 39.4529 84.7276 40.5842 84.7276 41.7999C84.7276 43.3872 84.2562 44.8054 83.3132 46.0549C82.3701 47.2706 80.9892 48.233 79.1706 48.9422C77.3856 49.6175 75.1796 49.9553 72.5526 49.9553Z"></path>
<path fill="black" d="M101.099 49.4479C99.0112 49.4479 97.2264 49.1102 95.7444 48.4348C94.2626 47.7256 93.1344 46.645 92.3598 45.193C91.6188 43.7409 91.2483 41.9172 91.2483 39.7223V29.0849H87.3078C86.9373 29.0849 86.6342 28.9667 86.3985 28.7303C86.1627 28.4939 86.0449 28.19 86.0449 27.8186V24.3742C86.0449 24.0026 86.1627 23.6987 86.3985 23.4623C86.6342 23.2259 86.9373 23.1078 87.3078 23.1078H91.2483V14.7499C91.2483 14.3783 91.3662 14.0744 91.602 13.838C91.8714 13.6016 92.1744 13.4834 92.5112 13.4834H97.462C97.8326 13.4834 98.1356 13.6016 98.3714 13.838C98.6072 14.0744 98.725 14.3783 98.725 14.7499V23.1078H105.04C105.377 23.1078 105.663 23.2259 105.899 23.4623C106.134 23.6987 106.252 24.0026 106.252 24.3742V27.8186C106.252 28.19 106.134 28.4939 105.899 28.7303C105.663 28.9667 105.377 29.0849 105.04 29.0849H98.725V39.1145C98.725 40.3977 98.944 41.4108 99.3818 42.1536C99.8532 42.8628 100.662 43.2174 101.807 43.2174H105.494C105.831 43.2174 106.118 43.3356 106.353 43.572C106.589 43.8084 106.707 44.0953 106.707 44.4331V48.1814C106.707 48.553 106.589 48.8569 106.353 49.0933C106.118 49.3297 105.831 49.4479 105.494 49.4479H101.099Z"></path>
<path fill="black" d="M111.316 49.447C110.979 49.447 110.693 49.3288 110.457 49.0924C110.221 48.8561 110.103 48.5521 110.103 48.1805V24.3733C110.103 24.0355 110.221 23.7485 110.457 23.5121C110.693 23.242 110.979 23.1069 111.316 23.1069H116.267C116.603 23.1069 116.89 23.242 117.125 23.5121C117.395 23.7485 117.53 24.0355 117.53 24.3733V26.3993C118.372 25.3525 119.399 24.542 120.611 23.968C121.857 23.3939 123.289 23.1069 124.905 23.1069H127.078C127.414 23.1069 127.701 23.225 127.936 23.4614C128.172 23.6978 128.29 24.0017 128.29 24.3733V28.7295C128.29 29.1009 128.172 29.4048 127.936 29.6412C127.701 29.8776 127.414 29.9958 127.078 29.9958H122.632C121.15 29.9958 119.988 30.4179 119.146 31.2621C118.304 32.0727 117.883 33.2377 117.883 34.7573V48.1805C117.883 48.5521 117.765 48.8561 117.53 49.0924C117.294 49.3288 116.991 49.447 116.62 49.447H111.316Z"></path>
<path fill="black" d="M132.26 49.4466C131.923 49.4466 131.636 49.3284 131.401 49.092C131.165 48.8556 131.047 48.5517 131.047 48.1801V24.3728C131.047 24.0013 131.165 23.6973 131.401 23.4609C131.636 23.2246 131.923 23.1065 132.26 23.1065H137.311C137.682 23.1065 137.985 23.2246 138.221 23.4609C138.456 23.6973 138.574 24.0013 138.574 24.3728V48.1801C138.574 48.5517 138.456 48.8556 138.221 49.092C137.985 49.3284 137.682 49.4466 137.311 49.4466H132.26ZM132.108 19.0541C131.771 19.0541 131.485 18.9359 131.249 18.6995C131.013 18.4631 130.896 18.1592 130.896 17.7877V13.7355C130.896 13.364 131.013 13.06 131.249 12.8237C131.485 12.5535 131.771 12.4185 132.108 12.4185H137.412C137.783 12.4185 138.086 12.5535 138.322 12.8237C138.591 13.06 138.726 13.364 138.726 13.7355V17.7877C138.726 18.1592 138.591 18.4631 138.322 18.6995C138.086 18.9359 137.783 19.0541 137.412 19.0541H132.108Z"></path>
<path fill="black" d="M153.649 49.9544C151.965 49.9544 150.466 49.6842 149.153 49.1439C147.839 48.5699 146.728 47.7593 145.818 46.7125C144.909 45.6319 144.219 44.3656 143.747 42.9135C143.276 41.4276 142.989 39.7898 142.888 38C142.855 37.3583 142.838 36.7844 142.838 36.2779C142.838 35.7376 142.855 35.1634 142.888 34.5556C142.956 32.7996 143.225 31.1955 143.697 29.7435C144.202 28.2914 144.892 27.0419 145.768 25.9951C146.677 24.9145 147.789 24.0871 149.102 23.5129C150.449 22.9051 151.965 22.6012 153.649 22.6012C155.4 22.6012 156.899 22.9051 158.145 23.5129C159.392 24.0871 160.418 24.8468 161.227 25.7924V14.7499C161.227 14.3783 161.345 14.0744 161.58 13.838C161.816 13.6016 162.119 13.4834 162.49 13.4834H167.694C168.03 13.4834 168.316 13.6016 168.552 13.838C168.787 14.0744 168.905 14.3783 168.905 14.7499V48.1814C168.905 48.553 168.787 48.8569 168.552 49.0933C168.316 49.3297 168.03 49.4479 167.694 49.4479H162.843C162.507 49.4479 162.221 49.3297 161.984 49.0933C161.748 48.8569 161.631 48.553 161.631 48.1814V46.4593C160.789 47.4724 159.728 48.3166 158.448 48.992C157.169 49.6337 155.568 49.9544 153.649 49.9544ZM155.972 43.8759C157.219 43.8759 158.212 43.5889 158.954 43.0149C159.728 42.4407 160.284 41.7147 160.62 40.8366C160.991 39.9587 161.192 39.0131 161.227 38C161.294 37.3583 161.327 36.7168 161.327 36.0752C161.327 35.4335 161.294 34.8088 161.227 34.201C161.192 33.2554 160.991 32.3775 160.62 31.5669C160.25 30.7227 159.678 30.0305 158.903 29.4902C158.162 28.9499 157.185 28.6797 155.972 28.6797C154.693 28.6797 153.682 28.9667 152.942 29.5407C152.201 30.0811 151.662 30.8072 151.325 31.719C151.022 32.6307 150.837 33.6268 150.769 34.7075C150.668 35.7544 150.668 36.8012 150.769 37.8481C150.837 38.9288 151.022 39.9249 151.325 40.8366C151.662 41.7484 152.201 42.4914 152.942 43.0654C153.682 43.6057 154.693 43.8759 155.972 43.8759Z"></path>
<path fill="black" d="M186.036 49.9553C182.163 49.9553 179.082 48.8746 176.792 46.7134C174.535 44.5521 173.339 41.4116 173.204 37.2917C173.204 37.0216 173.204 36.667 173.204 36.2281C173.204 35.7553 173.204 35.3838 173.204 35.1136C173.339 32.5134 173.928 30.2846 174.973 28.4273C176.016 26.5361 177.482 25.1011 179.368 24.1216C181.253 23.1087 183.46 22.6021 185.986 22.6021C188.815 22.6021 191.172 23.193 193.058 24.375C194.978 25.5232 196.409 27.1103 197.353 29.1365C198.329 31.1289 198.817 33.4251 198.817 36.0253V37.1905C198.817 37.5281 198.682 37.8152 198.413 38.0516C198.178 38.288 197.892 38.4062 197.554 38.4062H181.035C181.035 38.4398 181.035 38.5075 181.035 38.6087C181.035 38.6762 181.035 38.7439 181.035 38.8114C181.068 39.892 181.27 40.8882 181.641 41.7999C182.045 42.678 182.601 43.3872 183.308 43.9275C184.049 44.4678 184.924 44.7379 185.936 44.7379C186.778 44.7379 187.468 44.6197 188.006 44.3833C188.545 44.1469 188.983 43.86 189.32 43.5222C189.69 43.1844 189.959 42.8975 190.127 42.6611C190.432 42.3234 190.667 42.1208 190.836 42.0533C191.038 41.9519 191.341 41.9013 191.745 41.9013H196.998C197.336 41.9013 197.606 42.0026 197.807 42.2052C198.043 42.3741 198.143 42.6273 198.11 42.965C198.076 43.5054 197.79 44.1807 197.251 44.9911C196.747 45.7678 195.988 46.5445 194.978 47.3212C193.968 48.0641 192.705 48.6889 191.189 49.1954C189.706 49.702 187.989 49.9553 186.036 49.9553ZM181.035 33.7966H190.936V33.6954C190.936 32.4796 190.735 31.4328 190.33 30.5547C189.959 29.643 189.404 28.9338 188.663 28.4273C187.923 27.9208 187.029 27.6674 185.986 27.6674C184.942 27.6674 184.049 27.9208 183.308 28.4273C182.568 28.9338 181.995 29.643 181.591 30.5547C181.22 31.4328 181.035 32.4796 181.035 33.6954V33.7966Z"></path>
<path fill="black" d="M217.859 49.9551C214.895 49.9551 212.303 49.4655 210.08 48.4862C207.857 47.4731 206.139 45.9365 204.926 43.8766C203.715 41.7829 203.107 39.132 203.107 35.924V15.2571C203.107 14.8856 203.226 14.5817 203.462 14.3453C203.698 14.1089 204.001 13.9907 204.37 13.9907H209.878C210.248 13.9907 210.551 14.1089 210.787 14.3453C211.023 14.5817 211.141 14.8856 211.141 15.2571V35.8733C211.141 38.3721 211.73 40.2295 212.909 41.4451C214.088 42.661 215.737 43.2688 217.859 43.2688C219.947 43.2688 221.581 42.661 222.76 41.4451C223.939 40.2295 224.528 38.3721 224.528 35.8733V15.2571C224.528 14.8856 224.647 14.5817 224.881 14.3453C225.151 14.1089 225.454 13.9907 225.791 13.9907H231.348C231.685 13.9907 231.972 14.1089 232.206 14.3453C232.443 14.5817 232.561 14.8856 232.561 15.2571V35.924C232.561 39.132 231.955 41.7829 230.742 43.8766C229.529 45.9365 227.828 47.4731 225.64 48.4862C223.45 49.4655 220.858 49.9551 217.859 49.9551Z"></path>
<path fill="black" d="M236.594 49.4486C236.291 49.4486 236.038 49.3473 235.836 49.1446C235.635 48.9083 235.533 48.6549 235.533 48.3848C235.533 48.2835 235.55 48.1821 235.583 48.0809C235.617 47.9796 235.652 47.8782 235.685 47.777L246.849 31.3651L236.442 15.6623C236.342 15.4596 236.291 15.2571 236.291 15.0545C236.291 14.7843 236.392 14.5479 236.594 14.3453C236.796 14.1089 237.049 13.9907 237.352 13.9907H243.566C244.003 13.9907 244.34 14.1089 244.576 14.3453C244.845 14.5817 245.048 14.8011 245.182 15.0038L251.952 25.0839L258.772 15.0038C258.906 14.8011 259.109 14.5817 259.377 14.3453C259.647 14.1089 260.001 13.9907 260.439 13.9907H266.35C266.619 13.9907 266.855 14.1089 267.057 14.3453C267.293 14.5479 267.411 14.7843 267.411 15.0545C267.411 15.2909 267.343 15.4935 267.208 15.6623L256.801 31.3144L268.017 47.777C268.084 47.8782 268.118 47.9796 268.118 48.0809C268.152 48.1821 268.168 48.2835 268.168 48.3848C268.168 48.6549 268.067 48.9083 267.866 49.1446C267.663 49.3473 267.411 49.4486 267.107 49.4486H260.692C260.254 49.4486 259.9 49.3304 259.63 49.094C259.396 48.8576 259.209 48.6549 259.075 48.4862L251.7 37.8488L244.374 48.4862C244.273 48.6549 244.088 48.8576 243.819 49.094C243.582 49.3304 243.23 49.4486 242.757 49.4486H236.594Z"></path>
</svg>
